<svg xmlns="http://www.w3.org/2000/svg" xmlns:xlink="http://www.w3.org/1999/xlink" width="500" zoomAndPan="magnify" viewBox="0 0 375 374.999991" height="500" preserveAspectRatio="xMidYMid meet" version="1.0"><defs><g/><clipPath id="dc4396ef0f"><path d="M 46.222656 154.402344 L 68.398438 154.402344 L 68.398438 177.046875 L 46.222656 177.046875 Z M 46.222656 154.402344 " clip-rule="nonzero"/></clipPath><clipPath id="d092c4b766"><path d="M 36.667969 162.886719 L 57.3125 162.886719 L 57.3125 181.246094 L 36.667969 181.246094 Z M 36.667969 162.886719 " clip-rule="nonzero"/></clipPath><clipPath id="41d007cba5"><path d="M 0.0742188 108.453125 L 375 108.453125 L 375 166.488281 L 0.0742188 166.488281 Z M 0.0742188 108.453125 " clip-rule="nonzero"/></clipPath></defs><g fill="#000000" fill-opacity="0.4"><g transform="translate(2.393494, 275.007819)"><g><path d="M 40.152344 0 L 8.03125 -32.121094 L 8.03125 -80.203125 L 64.140625 -136.417969 L 64.140625 -32.121094 L 48.183594 -16.0625 L 96.265625 -16.0625 L 112.324219 -32.121094 L 112.324219 -176.464844 L 128.386719 -192.527344 L 48.183594 -192.527344 L 32.121094 -176.464844 L 32.121094 -208.589844 L 192.527344 -208.589844 L 176.464844 -192.527344 L 176.464844 -24.09375 L 152.480469 0 Z M 40.152344 0 "/></g></g></g><g fill="#076001" fill-opacity="1"><g transform="translate(-6.825255, 265.78907)"><g><path d="M 40.152344 0 L 8.03125 -32.121094 L 8.03125 -80.203125 L 64.140625 -136.417969 L 64.140625 -32.121094 L 48.183594 -16.0625 L 96.265625 -16.0625 L 112.324219 -32.121094 L 112.324219 -176.464844 L 128.386719 -192.527344 L 48.183594 -192.527344 L 32.121094 -176.464844 L 32.121094 -208.589844 L 192.527344 -208.589844 L 176.464844 -192.527344 L 176.464844 -24.09375 L 152.480469 0 Z M 40.152344 0 "/></g></g></g><g clip-path="url(#dc4396ef0f)"><path fill="#ffffff" d="M 68.398438 154.402344 L 68.398438 177.046875 L 46.222656 177.046875 L 46.222656 154.402344 Z M 68.398438 154.402344 " fill-opacity="1" fill-rule="nonzero"/></g><g fill="#000000" fill-opacity="0.4"><g transform="translate(196.792638, 275.007819)"><g><path d="M 56.109375 0 L 16.0625 -80.203125 L 16.0625 -192.527344 L 0 -208.589844 L 88.234375 -208.589844 L 80.203125 -192.527344 L 80.203125 -80.203125 L 96.265625 -48.183594 L 96.265625 -16.0625 L 104.292969 -16.0625 L 144.449219 -96.265625 L 144.449219 -192.527344 L 136.417969 -208.589844 L 176.464844 -208.589844 L 160.40625 -192.527344 L 160.40625 -96.265625 L 112.324219 0 Z M 56.109375 0 "/></g></g></g><g fill="#076001" fill-opacity="1"><g transform="translate(187.573893, 265.78907)"><g><path d="M 56.109375 0 L 16.0625 -80.203125 L 16.0625 -192.527344 L 0 -208.589844 L 88.234375 -208.589844 L 80.203125 -192.527344 L 80.203125 -80.203125 L 96.265625 -48.183594 L 96.265625 -16.0625 L 104.292969 -16.0625 L 144.449219 -96.265625 L 144.449219 -192.527344 L 136.417969 -208.589844 L 176.464844 -208.589844 L 160.40625 -192.527344 L 160.40625 -96.265625 L 112.324219 0 Z M 56.109375 0 "/></g></g></g><g fill="#076001" fill-opacity="1"><g transform="translate(115.755233, 325.399516)"><g><path d="M 12.722656 0 C 19.296875 0 26.265625 -4.070312 26.265625 -14.25 C 26.265625 -23.210938 21.253906 -27.480469 12.996094 -27.480469 L 1.957031 -27.480469 L 1.957031 0 Z M 8.21875 -26.695312 L 11.351562 -26.695312 C 16.402344 -26.734375 20.003906 -23.605469 20.003906 -14.25 C 20.003906 -3.445312 15.972656 -0.742188 10.375 -0.742188 L 8.21875 -0.742188 Z M 8.21875 -26.695312 "/></g></g></g><g fill="#076001" fill-opacity="1"><g transform="translate(174.70804, 325.399516)"><g><path d="M 8.21875 -15.109375 L 20.863281 -15.109375 L 20.863281 -15.8125 L 8.21875 -15.8125 L 8.21875 -26.8125 C 15.8125 -26.8125 19.375 -25.875 23.289062 -23.566406 L 23.289062 -27.480469 L 1.957031 -27.480469 L 1.957031 0 L 23.878906 0 L 23.878906 -3.914062 C 19.570312 -1.292969 15.734375 -0.703125 8.21875 -0.703125 Z M 8.21875 -15.109375 "/></g></g></g><g fill="#076001" fill-opacity="1"><g transform="translate(231.782055, 325.399516)"><g><path d="M 22.351562 -27.480469 C 22.976562 -23.132812 22.703125 -19.101562 20.902344 -13.855469 L 16.480469 -1.019531 L 7.398438 -27.480469 L 1.136719 -27.480469 L 10.570312 0 L 16.832031 0 L 26.265625 -27.480469 Z M 22.351562 -27.480469 "/></g></g></g><g clip-path="url(#d092c4b766)"><path fill="#076001" d="M 36.667969 162.886719 L 57.3125 162.886719 L 57.3125 181.246094 L 36.667969 181.246094 Z M 36.667969 162.886719 " fill-opacity="1" fill-rule="nonzero"/></g><g clip-path="url(#41d007cba5)"><path fill="#ffffff" d="M 0.0742188 108.453125 L 375.074219 108.453125 L 375.074219 166.488281 L 0.0742188 166.488281 Z M 0.0742188 108.453125 " fill-opacity="1" fill-rule="nonzero"/></g><g fill="#076001" fill-opacity="1"><g transform="translate(20.133933, 143.702443)"><g><path d="M -0.125 3.421875 C 0.519531 3.085938 1.035156 2.65625 1.421875 2.125 C 1.816406 1.601562 2.015625 0.890625 2.015625 -0.015625 L 2.015625 -12.515625 C 1.878906 -12.648438 1.65625 -12.773438 1.34375 -12.890625 C 1.03125 -13.015625 0.722656 -13.097656 0.421875 -13.140625 L 0.53125 -14 L 6.671875 -14 L 6.546875 -13.140625 C 6.210938 -13.078125 5.941406 -13 5.734375 -12.90625 C 5.523438 -12.820312 5.316406 -12.691406 5.109375 -12.515625 L 5.109375 -0.34375 C 5.109375 1.007812 4.695312 2.066406 3.875 2.828125 C 3.050781 3.597656 1.863281 4.179688 0.3125 4.578125 Z M -0.125 3.421875 "/></g></g></g><g fill="#076001" fill-opacity="1"><g transform="translate(44.069711, 143.702443)"><g><path d="M 6.796875 0.203125 C 4.734375 0.203125 3.171875 -0.410156 2.109375 -1.640625 C 1.054688 -2.867188 0.53125 -4.664062 0.53125 -7.03125 C 0.53125 -9.382812 1.054688 -11.171875 2.109375 -12.390625 C 3.171875 -13.617188 4.734375 -14.234375 6.796875 -14.234375 C 8.867188 -14.234375 10.429688 -13.617188 11.484375 -12.390625 C 12.535156 -11.171875 13.0625 -9.382812 13.0625 -7.03125 C 13.0625 -4.664062 12.535156 -2.867188 11.484375 -1.640625 C 10.429688 -0.410156 8.867188 0.203125 6.796875 0.203125 Z M 6.796875 -1.015625 C 7.785156 -1.015625 8.492188 -1.484375 8.921875 -2.421875 C 9.359375 -3.359375 9.578125 -4.894531 9.578125 -7.03125 C 9.578125 -9.164062 9.359375 -10.695312 8.921875 -11.625 C 8.492188 -12.550781 7.785156 -13.015625 6.796875 -13.015625 C 5.804688 -13.015625 5.085938 -12.550781 4.640625 -11.625 C 4.203125 -10.695312 3.984375 -9.164062 3.984375 -7.03125 C 3.984375 -4.894531 4.203125 -3.359375 4.640625 -2.421875 C 5.085938 -1.484375 5.804688 -1.015625 6.796875 -1.015625 Z M 6.796875 -1.015625 "/></g></g></g><g fill="#076001" fill-opacity="1"><g transform="translate(74.448891, 143.702443)"><g><path d="M 4.8125 0.140625 C 4.03125 0.140625 3.242188 0.0507812 2.453125 -0.125 C 1.671875 -0.3125 0.953125 -0.578125 0.296875 -0.921875 L 0.296875 -4.109375 L 2.203125 -4.46875 C 2.242188 -3.882812 2.332031 -3.285156 2.46875 -2.671875 C 2.601562 -2.066406 2.738281 -1.628906 2.875 -1.359375 C 3.507812 -1.128906 4.09375 -1.015625 4.625 -1.015625 C 5.21875 -1.015625 5.703125 -1.195312 6.078125 -1.5625 C 6.453125 -1.9375 6.640625 -2.453125 6.640625 -3.109375 C 6.640625 -3.753906 6.425781 -4.300781 6 -4.75 C 5.582031 -5.195312 4.921875 -5.613281 4.015625 -6 C 3.078125 -6.40625 2.34375 -6.800781 1.8125 -7.1875 C 1.28125 -7.570312 0.894531 -8.015625 0.65625 -8.515625 C 0.425781 -9.015625 0.3125 -9.617188 0.3125 -10.328125 C 0.3125 -11.054688 0.515625 -11.710938 0.921875 -12.296875 C 1.328125 -12.878906 1.882812 -13.335938 2.59375 -13.671875 C 3.3125 -14.003906 4.117188 -14.171875 5.015625 -14.171875 C 5.796875 -14.171875 6.519531 -14.046875 7.1875 -13.796875 C 7.851562 -13.554688 8.378906 -13.226562 8.765625 -12.8125 C 9.148438 -12.394531 9.34375 -11.9375 9.34375 -11.4375 C 9.34375 -10.96875 9.21875 -10.59375 8.96875 -10.3125 C 8.71875 -10.03125 8.390625 -9.890625 7.984375 -9.890625 C 7.460938 -9.890625 6.929688 -10.097656 6.390625 -10.515625 C 6.734375 -10.910156 6.90625 -11.332031 6.90625 -11.78125 C 6.90625 -12.175781 6.738281 -12.484375 6.40625 -12.703125 C 6.082031 -12.929688 5.632812 -13.046875 5.0625 -13.046875 C 4.46875 -13.046875 3.992188 -12.890625 3.640625 -12.578125 C 3.285156 -12.265625 3.109375 -11.859375 3.109375 -11.359375 C 3.109375 -10.941406 3.191406 -10.578125 3.359375 -10.265625 C 3.523438 -9.960938 3.8125 -9.671875 4.21875 -9.390625 C 4.632812 -9.109375 5.222656 -8.800781 5.984375 -8.46875 C 7.296875 -7.894531 8.226562 -7.273438 8.78125 -6.609375 C 9.34375 -5.953125 9.625 -5.109375 9.625 -4.078125 C 9.625 -2.773438 9.1875 -1.742188 8.3125 -0.984375 C 7.4375 -0.234375 6.269531 0.140625 4.8125 0.140625 Z M 4.8125 0.140625 "/></g></g></g><g fill="#076001" fill-opacity="1"><g transform="translate(101.176114, 143.702443)"><g><path d="M 0.71875 -0.859375 C 0.9375 -0.890625 1.164062 -0.957031 1.40625 -1.0625 C 1.644531 -1.164062 1.8125 -1.273438 1.90625 -1.390625 L 1.90625 -12.625 C 1.570312 -12.914062 1.144531 -13.117188 0.625 -13.234375 L 0.6875 -14 L 10.90625 -14 L 10.984375 -10.546875 C 10.660156 -10.441406 10.363281 -10.390625 10.09375 -10.390625 C 9.957031 -10.390625 9.734375 -10.421875 9.421875 -10.484375 C 9.316406 -11.015625 9.191406 -11.453125 9.046875 -11.796875 C 8.910156 -12.140625 8.738281 -12.445312 8.53125 -12.71875 L 5 -12.71875 L 5 -7.75 L 6.953125 -7.890625 C 7.203125 -7.921875 7.4375 -8.0625 7.65625 -8.3125 C 7.875 -8.5625 8.03125 -8.890625 8.125 -9.296875 L 9.21875 -9.296875 L 9.21875 -4.953125 L 8.125 -4.953125 C 7.925781 -5.515625 7.734375 -5.90625 7.546875 -6.125 C 7.367188 -6.351562 7.164062 -6.484375 6.9375 -6.515625 L 5 -6.671875 L 5 -1.296875 L 8.671875 -1.296875 C 9.117188 -1.972656 9.445312 -2.863281 9.65625 -3.96875 C 9.945312 -4.007812 10.234375 -4.03125 10.515625 -4.03125 C 10.753906 -4.03125 10.988281 -4.007812 11.21875 -3.96875 L 11 0 L 0.625 0 Z M 6.6875 -18.15625 C 7 -18.632812 7.394531 -18.875 7.875 -18.875 C 8.164062 -18.875 8.398438 -18.78125 8.578125 -18.59375 C 8.753906 -18.414062 8.84375 -18.179688 8.84375 -17.890625 C 8.84375 -17.679688 8.785156 -17.46875 8.671875 -17.25 C 8.554688 -17.039062 8.390625 -16.859375 8.171875 -16.703125 L 5.71875 -14.96875 L 5 -15.65625 Z M 6.6875 -18.15625 "/></g></g></g><g fill="#076001" fill-opacity="1"><g transform="translate(129.708322, 143.702443)"><g/></g></g><g fill="#076001" fill-opacity="1"><g transform="translate(151.125503, 143.702443)"><g><path d="M 1.234375 -12.25 C 1.085938 -12.738281 0.632812 -13.046875 -0.125 -13.171875 L -0.015625 -14 L 5.734375 -14 L 5.609375 -13.171875 C 5.015625 -13.140625 4.582031 -12.984375 4.3125 -12.703125 L 7.15625 -3.890625 L 10.234375 -12.53125 C 9.867188 -12.851562 9.3125 -13.066406 8.5625 -13.171875 L 8.671875 -14 L 13.3125 -14 L 13.203125 -13.171875 C 12.835938 -13.148438 12.53125 -13.078125 12.28125 -12.953125 C 12.039062 -12.828125 11.890625 -12.664062 11.828125 -12.46875 L 7.265625 0 L 5.140625 0 Z M 1.234375 -12.25 "/></g></g></g><g fill="#076001" fill-opacity="1"><g transform="translate(181.189851, 143.702443)"><g><path d="M 0.71875 -0.859375 C 1.34375 -0.960938 1.84375 -1.171875 2.21875 -1.484375 L 2.21875 -12.515625 C 2.082031 -12.648438 1.859375 -12.773438 1.546875 -12.890625 C 1.242188 -13.015625 0.9375 -13.097656 0.625 -13.140625 L 0.734375 -14 L 6.890625 -14 L 6.765625 -13.140625 C 6.429688 -13.078125 6.15625 -13 5.9375 -12.90625 C 5.726562 -12.820312 5.519531 -12.691406 5.3125 -12.515625 L 5.3125 -1.484375 C 5.59375 -1.222656 6.117188 -1.015625 6.890625 -0.859375 L 6.734375 0 L 0.625 0 Z M 0.71875 -0.859375 "/></g></g></g><g fill="#076001" fill-opacity="1"><g transform="translate(205.503418, 143.702443)"><g><path d="M 0.71875 -0.859375 C 0.976562 -0.910156 1.191406 -0.976562 1.359375 -1.0625 C 1.523438 -1.15625 1.707031 -1.296875 1.90625 -1.484375 L 1.90625 -12.515625 C 1.613281 -12.765625 1.1875 -12.988281 0.625 -13.1875 L 0.71875 -14 L 4.84375 -14 L 10.640625 -3.84375 L 10.640625 -12.515625 C 10.429688 -12.691406 10.222656 -12.820312 10.015625 -12.90625 C 9.804688 -13 9.535156 -13.078125 9.203125 -13.140625 L 9.296875 -14 L 13.875 -14 L 13.75 -13.1875 C 13.207031 -13.019531 12.78125 -12.796875 12.46875 -12.515625 L 12.46875 0 L 9.28125 0 L 3.734375 -9.65625 L 3.734375 -1.484375 C 4.054688 -1.191406 4.582031 -0.96875 5.3125 -0.8125 L 5.171875 0 L 0.625 0 Z M 0.71875 -0.859375 "/></g></g></g><g fill="#076001" fill-opacity="1"><g transform="translate(236.701131, 143.702443)"><g><path d="M 0.71875 -0.859375 C 1.34375 -0.960938 1.84375 -1.171875 2.21875 -1.484375 L 2.21875 -12.515625 C 2.082031 -12.648438 1.859375 -12.773438 1.546875 -12.890625 C 1.242188 -13.015625 0.9375 -13.097656 0.625 -13.140625 L 0.734375 -14 L 6.890625 -14 L 6.765625 -13.140625 C 6.429688 -13.078125 6.15625 -13 5.9375 -12.90625 C 5.726562 -12.820312 5.519531 -12.691406 5.3125 -12.515625 L 5.3125 -1.484375 C 5.59375 -1.222656 6.117188 -1.015625 6.890625 -0.859375 L 6.734375 0 L 0.625 0 Z M 4.1875 -18.15625 C 4.5 -18.632812 4.894531 -18.875 5.375 -18.875 C 5.664062 -18.875 5.898438 -18.78125 6.078125 -18.59375 C 6.253906 -18.414062 6.34375 -18.179688 6.34375 -17.890625 C 6.34375 -17.679688 6.285156 -17.46875 6.171875 -17.25 C 6.054688 -17.039062 5.890625 -16.859375 5.671875 -16.703125 L 3.21875 -14.96875 L 2.5 -15.65625 Z M 4.1875 -18.15625 "/></g></g></g><g fill="#076001" fill-opacity="1"><g transform="translate(261.014698, 143.702443)"><g><path d="M 6.578125 0.203125 C 4.597656 0.203125 3.09375 -0.390625 2.0625 -1.578125 C 1.039062 -2.765625 0.53125 -4.515625 0.53125 -6.828125 C 0.53125 -9.242188 1.035156 -11.066406 2.046875 -12.296875 C 3.054688 -13.535156 4.554688 -14.15625 6.546875 -14.15625 C 7.390625 -14.15625 8.132812 -14.039062 8.78125 -13.8125 C 9.4375 -13.582031 9.945312 -13.253906 10.3125 -12.828125 C 10.675781 -12.410156 10.859375 -11.925781 10.859375 -11.375 C 10.859375 -10.875 10.695312 -10.445312 10.375 -10.09375 C 10.050781 -9.75 9.648438 -9.578125 9.171875 -9.578125 C 8.835938 -9.578125 8.519531 -9.664062 8.21875 -9.84375 C 7.914062 -10.03125 7.695312 -10.265625 7.5625 -10.546875 C 7.78125 -10.921875 7.890625 -11.289062 7.890625 -11.65625 C 7.890625 -12.070312 7.757812 -12.40625 7.5 -12.65625 C 7.25 -12.914062 6.90625 -13.046875 6.46875 -13.046875 C 4.8125 -13.046875 3.984375 -11.09375 3.984375 -7.1875 C 3.984375 -5.207031 4.242188 -3.71875 4.765625 -2.71875 C 5.285156 -1.71875 6.117188 -1.21875 7.265625 -1.21875 C 7.828125 -1.21875 8.378906 -1.347656 8.921875 -1.609375 C 9.472656 -1.878906 9.984375 -2.273438 10.453125 -2.796875 L 11.15625 -2.125 C 10.488281 -1.382812 9.753906 -0.8125 8.953125 -0.40625 C 8.148438 0 7.359375 0.203125 6.578125 0.203125 Z M 6.578125 0.203125 "/></g></g></g><g fill="#076001" fill-opacity="1"><g transform="translate(289.378992, 143.702443)"><g><path d="M 0.71875 -0.859375 C 1.34375 -0.960938 1.84375 -1.171875 2.21875 -1.484375 L 2.21875 -12.515625 C 2.082031 -12.648438 1.859375 -12.773438 1.546875 -12.890625 C 1.242188 -13.015625 0.9375 -13.097656 0.625 -13.140625 L 0.734375 -14 L 6.890625 -14 L 6.765625 -13.140625 C 6.429688 -13.078125 6.15625 -13 5.9375 -12.90625 C 5.726562 -12.820312 5.519531 -12.691406 5.3125 -12.515625 L 5.3125 -1.484375 C 5.59375 -1.222656 6.117188 -1.015625 6.890625 -0.859375 L 6.734375 0 L 0.625 0 Z M 0.71875 -0.859375 "/></g></g></g><g fill="#076001" fill-opacity="1"><g transform="translate(313.692559, 143.702443)"><g><path d="M 7.5625 0.140625 C 3.832031 0.140625 1.96875 -1.363281 1.96875 -4.375 L 1.96875 -12.515625 C 1.84375 -12.640625 1.625 -12.757812 1.3125 -12.875 C 1.007812 -13 0.695312 -13.085938 0.375 -13.140625 L 0.484375 -14 L 6.640625 -14 L 6.515625 -13.140625 C 6.160156 -13.078125 5.878906 -13 5.671875 -12.90625 C 5.460938 -12.8125 5.257812 -12.679688 5.0625 -12.515625 L 5.0625 -4.375 C 5.0625 -3.332031 5.296875 -2.550781 5.765625 -2.03125 C 6.242188 -1.519531 6.988281 -1.265625 8 -1.265625 C 9.800781 -1.265625 10.703125 -2.40625 10.703125 -4.6875 L 10.703125 -12.5625 C 10.523438 -12.695312 10.316406 -12.800781 10.078125 -12.875 C 9.835938 -12.957031 9.515625 -13.046875 9.109375 -13.140625 L 9.21875 -14 L 14.21875 -14 L 14.09375 -13.1875 C 13.488281 -13.007812 13.023438 -12.785156 12.703125 -12.515625 L 12.703125 -4.71875 C 12.703125 -3.082031 12.28125 -1.863281 11.4375 -1.0625 C 10.601562 -0.257812 9.3125 0.140625 7.5625 0.140625 Z M 7.5625 0.140625 "/></g></g></g><g fill="#076001" fill-opacity="1"><g transform="translate(345.079168, 143.702443)"><g><path d="M 4.8125 0.140625 C 4.03125 0.140625 3.242188 0.0507812 2.453125 -0.125 C 1.671875 -0.3125 0.953125 -0.578125 0.296875 -0.921875 L 0.296875 -4.109375 L 2.203125 -4.46875 C 2.242188 -3.882812 2.332031 -3.285156 2.46875 -2.671875 C 2.601562 -2.066406 2.738281 -1.628906 2.875 -1.359375 C 3.507812 -1.128906 4.09375 -1.015625 4.625 -1.015625 C 5.21875 -1.015625 5.703125 -1.195312 6.078125 -1.5625 C 6.453125 -1.9375 6.640625 -2.453125 6.640625 -3.109375 C 6.640625 -3.753906 6.425781 -4.300781 6 -4.75 C 5.582031 -5.195312 4.921875 -5.613281 4.015625 -6 C 3.078125 -6.40625 2.34375 -6.800781 1.8125 -7.1875 C 1.28125 -7.570312 0.894531 -8.015625 0.65625 -8.515625 C 0.425781 -9.015625 0.3125 -9.617188 0.3125 -10.328125 C 0.3125 -11.054688 0.515625 -11.710938 0.921875 -12.296875 C 1.328125 -12.878906 1.882812 -13.335938 2.59375 -13.671875 C 3.3125 -14.003906 4.117188 -14.171875 5.015625 -14.171875 C 5.796875 -14.171875 6.519531 -14.046875 7.1875 -13.796875 C 7.851562 -13.554688 8.378906 -13.226562 8.765625 -12.8125 C 9.148438 -12.394531 9.34375 -11.9375 9.34375 -11.4375 C 9.34375 -10.96875 9.21875 -10.59375 8.96875 -10.3125 C 8.71875 -10.03125 8.390625 -9.890625 7.984375 -9.890625 C 7.460938 -9.890625 6.929688 -10.097656 6.390625 -10.515625 C 6.734375 -10.910156 6.90625 -11.332031 6.90625 -11.78125 C 6.90625 -12.175781 6.738281 -12.484375 6.40625 -12.703125 C 6.082031 -12.929688 5.632812 -13.046875 5.0625 -13.046875 C 4.46875 -13.046875 3.992188 -12.890625 3.640625 -12.578125 C 3.285156 -12.265625 3.109375 -11.859375 3.109375 -11.359375 C 3.109375 -10.941406 3.191406 -10.578125 3.359375 -10.265625 C 3.523438 -9.960938 3.8125 -9.671875 4.21875 -9.390625 C 4.632812 -9.109375 5.222656 -8.800781 5.984375 -8.46875 C 7.296875 -7.894531 8.226562 -7.273438 8.78125 -6.609375 C 9.34375 -5.953125 9.625 -5.109375 9.625 -4.078125 C 9.625 -2.773438 9.1875 -1.742188 8.3125 -0.984375 C 7.4375 -0.234375 6.269531 0.140625 4.8125 0.140625 Z M 4.8125 0.140625 "/></g></g></g></svg>